<svg id="svg" fill="#865DF8" stroke="#865DF8" width="200" height="200" version="1.1" viewBox="144 144 512 512" xmlns="http://www.w3.org/2000/svg">
    <g id="IconSvg_bgCarrier" stroke-width="0"></g>
    <g id="IconSvg_tracerCarrier" stroke-linecap="round" stroke-linejoin="round" stroke="#CCCCCC" stroke-width="0">
      <g xmlns="http://www.w3.org/2000/svg">
  <path d="m478.95 296.06h-60.66v-6.75c0-18.539-15.113-33.656-33.656-33.656-18.539 0-33.656 15.113-33.656 33.656v6.75h-7.3047c-12.043 0-22.016 8.8672-23.781 20.453-12.695 0.60547-22.871 11.133-22.871 24.031v179.71c0 13.25 10.781 24.031 24.031 24.031h135.27c12.043 0 22.016-8.8672 23.781-20.453 12.695-0.60547 22.871-11.133 22.871-24.031l0.003906-179.66c0-13.301-10.781-24.082-24.031-24.082zm-118.6-6.6992c0-13.402 10.883-24.285 24.285-24.285 13.402 0 24.285 10.883 24.285 24.285v6.75h-48.516l-0.003906-6.75zm95.977 245.55h-135.27c-8.0625 0-14.66-6.5508-14.66-14.66v-179.71c0-7.6094 5.793-13.855 13.199-14.559v173.91c0 13.25 10.781 24.031 24.031 24.031h126.91c-1.6133 6.2969-7.3555 10.98-14.207 10.98zm37.281-35.062c0 8.0625-6.5508 14.66-14.66 14.66h-135.27c-8.0625 0-14.66-6.5508-14.66-14.66v-179.71c0-8.0625 6.5508-14.66 14.66-14.66h7.3047v99.402c0 14.609 11.891 26.5 26.5 26.5 7.1055 0 13.754-2.7695 18.742-7.7578 4.9883-5.0391 7.7578-11.688 7.7578-18.793l-0.10156-73.707c0-10.48-8.5664-18.992-19.043-18.992-10.48 0-19.043 8.5156-19.043 19.043v57.281c0 2.6211 2.1172 4.6836 4.6836 4.6836 2.6211 0 4.6836-2.1172 4.6836-4.6836l0.003906-57.281c0-5.2891 4.332-9.6211 9.6211-9.6211s9.6211 4.332 9.6211 9.6211l0.10156 73.707c0 4.5859-1.7617 8.8672-4.9883 12.141-3.2227 3.2227-7.5586 5.0391-12.09 5.0391-9.4219 0-17.129-7.6562-17.129-17.129v-99.453h118.6c8.0625 0 14.66 6.5508 14.66 14.66v179.71z"></path>
  <path d="m470.33 446.15h-113.51c-2.6211 0-4.6836 2.1172-4.6836 4.6836 0 2.6211 2.1172 4.6836 4.6836 4.6836h113.46c2.6211 0 4.6836-2.1172 4.6836-4.6836 0.054687-2.5703-2.0625-4.6836-4.6289-4.6836z"></path>
  <path d="m470.33 475.82h-113.51c-2.6211 0-4.6836 2.1172-4.6836 4.6836 0 2.6211 2.1172 4.6836 4.6836 4.6836h113.46c2.6211 0 4.6836-2.1172 4.6836-4.6836 0.054687-2.6172-2.0625-4.6836-4.6289-4.6836z"></path>
 </g>

      </g>
     <g id="IconSvg_iconCarrier">
      <g xmlns="http://www.w3.org/2000/svg">
  <path d="m478.95 296.06h-60.66v-6.75c0-18.539-15.113-33.656-33.656-33.656-18.539 0-33.656 15.113-33.656 33.656v6.75h-7.3047c-12.043 0-22.016 8.8672-23.781 20.453-12.695 0.60547-22.871 11.133-22.871 24.031v179.71c0 13.25 10.781 24.031 24.031 24.031h135.27c12.043 0 22.016-8.8672 23.781-20.453 12.695-0.60547 22.871-11.133 22.871-24.031l0.003906-179.66c0-13.301-10.781-24.082-24.031-24.082zm-118.6-6.6992c0-13.402 10.883-24.285 24.285-24.285 13.402 0 24.285 10.883 24.285 24.285v6.75h-48.516l-0.003906-6.75zm95.977 245.55h-135.27c-8.0625 0-14.66-6.5508-14.66-14.66v-179.71c0-7.6094 5.793-13.855 13.199-14.559v173.91c0 13.25 10.781 24.031 24.031 24.031h126.91c-1.6133 6.2969-7.3555 10.98-14.207 10.98zm37.281-35.062c0 8.0625-6.5508 14.66-14.66 14.66h-135.27c-8.0625 0-14.66-6.5508-14.66-14.66v-179.71c0-8.0625 6.5508-14.66 14.66-14.66h7.3047v99.402c0 14.609 11.891 26.5 26.5 26.5 7.1055 0 13.754-2.7695 18.742-7.7578 4.9883-5.0391 7.7578-11.688 7.7578-18.793l-0.10156-73.707c0-10.48-8.5664-18.992-19.043-18.992-10.48 0-19.043 8.5156-19.043 19.043v57.281c0 2.6211 2.1172 4.6836 4.6836 4.6836 2.6211 0 4.6836-2.1172 4.6836-4.6836l0.003906-57.281c0-5.2891 4.332-9.6211 9.6211-9.6211s9.6211 4.332 9.6211 9.6211l0.10156 73.707c0 4.5859-1.7617 8.8672-4.9883 12.141-3.2227 3.2227-7.5586 5.0391-12.09 5.0391-9.4219 0-17.129-7.6562-17.129-17.129v-99.453h118.6c8.0625 0 14.66 6.5508 14.66 14.66v179.71z"></path>
  <path d="m470.33 446.15h-113.51c-2.6211 0-4.6836 2.1172-4.6836 4.6836 0 2.6211 2.1172 4.6836 4.6836 4.6836h113.46c2.6211 0 4.6836-2.1172 4.6836-4.6836 0.054687-2.5703-2.0625-4.6836-4.6289-4.6836z"></path>
  <path d="m470.33 475.82h-113.51c-2.6211 0-4.6836 2.1172-4.6836 4.6836 0 2.6211 2.1172 4.6836 4.6836 4.6836h113.46c2.6211 0 4.6836-2.1172 4.6836-4.6836 0.054687-2.6172-2.0625-4.6836-4.6289-4.6836z"></path>
 </g>

      </g>
      </svg>